<?xml version="1.0" encoding="UTF-8"?>
<svg id="Layer_2" data-name="Layer 2" xmlns="http://www.w3.org/2000/svg" viewBox="0 0 252.54 252.54">
  <defs>
    <style>
      .cls-1 {
        fill: none;
        stroke: #1c578a;
        stroke-linecap: round;
        stroke-linejoin: round;
        stroke-width: 6.5px;
      }

      .cls-2 {
        fill: #fff;
        stroke-width: 0px;
      }
    </style>
  </defs>
  <g id="Pen_button" data-name="Pen button">
    <g>
      <circle class="cls-2" cx="126.27" cy="126.27" r="126.27"/>
      <g>
        <rect class="cls-1" x="49.14" y="106.17" width="160.12" height="20.01" transform="translate(-44.31 125.38) rotate(-45)"/>
        <path class="cls-1" d="M67.87,168.07l-5.12,5.12c-2.61,2.61-2.61,6.83,0,9.43h0c2.61,2.61,6.83,2.61,9.43,0l5.12-5.12-9.43-9.43Z"/>
        <line class="cls-1" x1="62.75" y1="182.63" x2="56.07" y2="189.3"/>
        <line class="cls-1" x1="129.19" y1="102.03" x2="143.35" y2="116.18"/>
        <path class="cls-1" d="M174.01,57.17l-5.99-5.99c-2.26-2.26-5.92-2.26-8.18,0l-36.01,36.05"/>
        <rect class="cls-1" x="184.34" y="49.36" width="10.01" height="13.34" transform="translate(15.84 150.3) rotate(-45)"/>
        <path class="cls-1" d="M51.36,196.02h91.99c6.51-2,11.79-7.28,11.79-13.79h0c0-6.51-5.28-11.79-11.79-11.79h-14.15c-3.91,0-7.08-3.17-7.08-7.08h0c0-3.91,3.17-7.08,7.08-7.08h44.82"/>
        <line class="cls-1" x1="190.45" y1="156.28" x2="204.6" y2="156.28"/>
      </g>
    </g>
  </g>
</svg>